<svg width="19" height="19" viewBox="0 0 19 19" fill="none" xmlns="http://www.w3.org/2000/svg">
<path d="M12.101 5.00697L3.06304 14.045L2.47204 16.061L4.44704 15.49L13.515 6.42197L12.101 5.00697ZM13.643 3.46497L15.057 4.87897L16.375 3.56097C16.4688 3.4672 16.5214 3.34005 16.5214 3.20747C16.5214 3.07488 16.4688 2.94773 16.375 2.85397L15.667 2.14697C15.5733 2.05323 15.4461 2.00057 15.3135 2.00057C15.181 2.00057 15.0538 2.05323 14.96 2.14697L13.644 3.46497H13.643ZM17.082 0.732966L17.789 1.43997C18.2577 1.90879 18.521 2.54456 18.521 3.20747C18.521 3.87038 18.2577 4.50615 17.789 4.97497L5.49704 17.268L1.27704 18.488C1.10503 18.5376 0.922859 18.5401 0.749546 18.4952C0.576233 18.4504 0.418133 18.3599 0.291753 18.2331C0.165372 18.1063 0.0753442 17.9479 0.031068 17.7744C-0.0132082 17.601 -0.0101092 17.4188 0.0400415 17.247L1.28804 12.992L13.548 0.731966C14.0169 0.263288 14.6526 0 15.3155 0C15.9785 0 16.6142 0.263288 17.083 0.731966L17.082 0.732966Z" fill="#2C2C2E"/>
</svg>
