<svg width="20" height="16" viewBox="0 0 20 16" fill="none" xmlns="http://www.w3.org/2000/svg">
<path d="M2.38795 4.49894L3.25995 10.3929H15.9959L16.8629 4.41294L13.3699 7.43294L9.61495 2.60594L5.70595 7.41694L2.38795 4.49894ZM12.4259 2.96194L12.3479 3.02894L12.4889 3.04294L13.6559 4.54194L15.0929 3.29994L15.2329 3.31394L15.1709 3.23194L17.584 1.14594C17.7382 1.01285 17.9294 0.930054 18.132 0.908626C18.3346 0.887198 18.5389 0.928165 18.7176 1.02604C18.8963 1.12392 19.0408 1.27404 19.1319 1.45631C19.2229 1.63858 19.2561 1.8443 19.2269 2.04594L17.7269 12.3929H1.53395L0.0109491 2.09294C-0.0193037 1.89018 0.0134938 1.68302 0.104899 1.49951C0.196305 1.31601 0.341902 1.16503 0.52197 1.06703C0.702037 0.969032 0.907875 0.928743 1.1116 0.951623C1.31533 0.974502 1.5071 1.05944 1.66095 1.19494L3.96195 3.21994L3.91195 3.27994L4.02095 3.27194L5.46495 4.54194L6.67695 3.04894L6.78595 3.03994L6.72595 2.98794L8.85695 0.368944C8.95187 0.252254 9.0719 0.158484 9.2081 0.0946148C9.34429 0.030746 9.49313 -0.0015749 9.64355 5.90011e-05C9.79396 0.00169291 9.94207 0.0372395 10.0768 0.104052C10.2116 0.170864 10.3296 0.26722 10.4219 0.385944L12.4269 2.96194H12.4259ZM1.61195 13.3929H17.6119V14.3929C17.6119 14.6582 17.5066 14.9125 17.3191 15.1001C17.1315 15.2876 16.8772 15.3929 16.6119 15.3929H2.61195C2.34673 15.3929 2.09238 15.2876 1.90484 15.1001C1.71731 14.9125 1.61195 14.6582 1.61195 14.3929V13.3929Z" fill="#A3238E"/>
</svg>
