<svg width="16" height="22" viewBox="0 0 16 22" fill="none" xmlns="http://www.w3.org/2000/svg">
<path d="M3.57259 14.4055L2.96059 13.1475C2.86825 12.9567 2.71767 12.8002 2.53059 12.7005L0.530588 11.6405C0.324764 11.5311 0.163649 11.3531 0.0750914 11.1375C-0.0134665 10.9219 -0.0239024 10.682 0.0455875 10.4595L0.755588 8.18652C0.816166 7.99248 0.816166 7.78457 0.755588 7.59052L0.0455875 5.31752C-0.0240832 5.09475 -0.0136329 4.85463 0.0751278 4.63876C0.163888 4.42288 0.325367 4.24486 0.531588 4.13552L2.53059 3.07552C2.71752 2.97612 2.86808 2.81996 2.96059 2.62952L3.96559 0.562523C4.07223 0.343315 4.25528 0.170611 4.48031 0.0768785C4.70534 -0.0168542 4.95686 -0.0251598 5.18759 0.0535229L7.24959 0.756523C7.45899 0.827991 7.68618 0.827991 7.89559 0.756523L9.95759 0.0535229C10.1884 -0.0250867 10.44 -0.0166347 10.6651 0.0772889C10.8901 0.171212 11.0731 0.344134 11.1796 0.563523L12.1846 2.62952C12.2769 2.82033 12.4275 2.97686 12.6146 3.07652L14.6146 4.13652C14.8204 4.24598 14.9815 4.42391 15.0701 4.63955C15.1586 4.8552 15.1691 5.095 15.0996 5.31752L14.3896 7.59052C14.329 7.78457 14.329 7.99248 14.3896 8.18652L15.0996 10.4595C15.1693 10.6823 15.1588 10.9224 15.07 11.1383C14.9813 11.3542 14.8198 11.5322 14.6136 11.6415L12.6146 12.7015C12.4277 12.8009 12.2771 12.9571 12.1846 13.1475L11.5726 14.4055V21.2845L7.57259 19.9265L3.57259 21.2845V14.4045V14.4055ZM5.57259 15.5925V18.4925L7.57259 17.8135L9.57259 18.4935V15.5925L7.89559 15.0205C7.68618 14.9491 7.45899 14.9491 7.24959 15.0205L5.57259 15.5925ZM10.3856 12.2725C10.6637 11.7004 11.1165 11.2315 11.6786 10.9335L12.9426 10.2635L12.4806 8.78352C12.2984 8.20076 12.2984 7.57629 12.4806 6.99352L12.9426 5.51352L11.6786 4.84352C11.1164 4.54531 10.6635 4.07603 10.3856 3.50352L9.76659 2.23152L8.54059 2.64952C7.91299 2.86347 7.23219 2.86347 6.60459 2.64952L5.37859 2.23152L4.75959 3.50452C4.48146 4.07666 4.02866 4.54557 3.46659 4.84352L2.20259 5.51352L2.66459 6.99352C2.84674 7.57629 2.84674 8.20076 2.66459 8.78352L2.20259 10.2635L3.46659 10.9335C4.02881 11.2317 4.48163 11.701 4.75959 12.2735L5.37859 13.5455L6.60459 13.1275C7.23219 12.9136 7.91299 12.9136 8.54059 13.1275L9.76659 13.5455L10.3856 12.2725ZM7.57259 4.88852C7.8378 4.88852 8.09216 4.99388 8.27969 5.18142C8.46723 5.36895 8.57259 5.62331 8.57259 5.88852V9.88852C8.57259 10.1537 8.46723 10.4081 8.27969 10.5956C8.09216 10.7832 7.8378 10.8885 7.57259 10.8885C7.30737 10.8885 7.05302 10.7832 6.86548 10.5956C6.67794 10.4081 6.57259 10.1537 6.57259 9.88852V5.88852C6.57259 5.62331 6.67794 5.36895 6.86548 5.18142C7.05302 4.99388 7.30737 4.88852 7.57259 4.88852Z" fill="#2E81FF"/>
</svg>
